# xmcd CD database file
#
# Track frame offsets:
#	150
#	19644
#	35440
#	52143
#	66662
#	84617
#	104266
#	122937
#
# Disc length: 1899 seconds
#
# Revision: 0
# Processed by: cddbd v1.5.1PL2 Copyright (c) Steve Scherf et al.
# Submitted via: CDex 1.51
#
DISCID=70076908
DTITLE=Kittyhawk - Race for the Oasis
DYEAR=1981
DGENRE=Jazz
TTITLE0=Race for the Oasis
TTITLE1=Wind, Sand and Stars
TTITLE2=Bells of Talieson
TTITLE3=King's Crossing
TTITLE4=Mo
TTITLE5=Arroyo
TTITLE6=Kilimanjaro
TTITLE7=Mighty Steel, Modern Love
EXTD=YEAR: 1981
EXTT0=
EXTT1=
EXTT2=
EXTT3=
EXTT4=
EXTT5=
EXTT6=
EXTT7=
PLAYORDER=
